<?xml version="1.0" encoding="utf-8"?>
<!-- Generator: Adobe Illustrator 25.3.1, SVG Export Plug-In . SVG Version: 6.00 Build 0)  -->
<svg version="1.1" id="Layer_1" xmlns="http://www.w3.org/2000/svg" xmlns:xlink="http://www.w3.org/1999/xlink" x="0px" y="0px"
	 viewBox="0 0 417.8 421.9" style="enable-background:new 0 0 417.8 421.9;" xml:space="preserve">
<style type="text/css">
	.st0{fill:none;stroke:#000000;stroke-width:5;stroke-miterlimit:10;}
</style>
<g>
	<path class="st0" d="M280.7,364.9H137.2c-8.2,0-14.8-6.6-14.8-14.8V77.7c0-8.2,6.6-14.8,14.8-14.8h143.5c8.2,0,14.8,6.6,14.8,14.8
		v272.5C295.4,358.3,288.8,364.9,280.7,364.9z"/>
	<rect x="135.4" y="108.9" class="st0" width="147" height="208"/>
	<path class="st0" d="M236.4,80.9h-55c-2.8,0-5,2.2-5,5l0,0c0,2.8,2.2,5,5,5h55c2.8,0,5-2.2,5-5l0,0
		C241.4,83.2,239.2,80.9,236.4,80.9z"/>
	<path class="st0" d="M164.4,80.9L164.4,80.9c2.8,0,5,2.2,5,5l0,0c0,2.8-2.2,5-5,5l0,0c-2.8,0-5-2.2-5-5l0,0
		C159.4,83.2,161.7,80.9,164.4,80.9z"/>
	<circle class="st0" cx="208.4" cy="340.9" r="16.5"/>
</g>
<g id="qeHW5P_2_">
	<g>
		<path d="M181.1,241.6c5.7-7.3,11.1-14.3,16.6-21.2c33.2-41.3,52.7-58.5,92.5-85.5c17.9-10.5,36.6-19.5,55.8-27.3
			c1.6-0.7,3-0.6,3.9,0.9c1.1,1.8,0.1,2.9-1.3,4c-13,9.9-26.1,19.6-38.8,29.8c-36.1,29-43.9,43.3-71.7,80.5
			c-16.7,22.4-31.8,45.9-44.5,70.8c-3.8,7.5-12,8.8-17.8,7.4c-3.7-0.9-6.1-3.1-7.5-6.8c-7.1-18.8-15.6-36.9-26-54
			c-8.1-13.3-17.2-25.8-27.6-37.4c-0.4-0.5-1-0.9-1.2-1.4c-0.3-1.1-0.9-2.6-0.4-3.4c0.4-0.8,2-1.4,3.1-1.3
			c15.4,1.5,29.5,6.5,41.7,16.3c8.5,6.8,15.1,15.1,20.7,24.4C179.4,238.7,180.1,240,181.1,241.6z"/>
	</g>
</g>
<circle class="st0" cx="208.9" cy="212" r="190.9"/>
</svg>
