<?xml version="1.0" encoding="utf-8"?>
<!-- Generator: Adobe Illustrator 25.2.0, SVG Export Plug-In . SVG Version: 6.00 Build 0)  -->
<svg version="1.1" id="Layer_1" xmlns="http://www.w3.org/2000/svg" xmlns:xlink="http://www.w3.org/1999/xlink" x="0px" y="0px"
	 viewBox="0 0 417.8 421.9" style="enable-background:new 0 0 417.8 421.9;" xml:space="preserve">
<style type="text/css">
	.st0{fill:#FFFFFF;}
</style>
<g>
	<path class="st0" d="M181.4,93.4h55c4.2,0,7.5-3.3,7.5-7.5c0-4.1-3.4-7.5-7.5-7.5h-55c-4.2,0-7.5,3.3-7.5,7.5
		S177.2,93.4,181.4,93.4z M181.4,83.4h55c1.4,0,2.5,1.1,2.5,2.5c0,1.4-1.1,2.5-2.5,2.5h-55c-1.4,0-2.5-1.1-2.5-2.5
		S180,83.4,181.4,83.4z"/>
	<path class="st0" d="M164.4,93.4c4.2,0,7.5-3.3,7.5-7.5s-3.3-7.5-7.5-7.5c-4.1,0-7.5,3.4-7.5,7.5C156.9,90.1,160.2,93.4,164.4,93.4
		z M164.4,83.4c1.4,0,2.5,1.1,2.5,2.5s-1.1,2.5-2.5,2.5s-2.5-1.1-2.5-2.5C161.9,84.6,163.1,83.4,164.4,83.4z"/>
	<path class="st0" d="M208.4,321.9c-10.5,0-19,8.5-19,19s8.5,19,19,19c10.5,0,19-8.5,19-19S218.9,321.9,208.4,321.9z M208.4,354.9
		c-7.7,0-14-6.3-14-14s6.3-14,14-14c7.7,0,14,6.3,14,14S216.1,354.9,208.4,354.9z"/>
	<path class="st0" d="M349.9,108.5c-0.9-1.5-2.3-1.6-3.9-0.9c-16.4,6.7-32.5,14.2-48,22.9V77.7c0-9.5-7.8-17.3-17.3-17.3H137.2
		c-9.5,0-17.3,7.8-17.3,17.3v119.4c-1.2-0.2-2.5-0.3-3.7-0.4c-1.1-0.1-2.7,0.5-3.1,1.3c-0.5,0.8,0.1,2.3,0.4,3.4
		c0.2,0.5,0.8,0.9,1.2,1.4c1.8,2,3.5,4,5.2,6v141.3c0,9.5,7.8,17.3,17.3,17.3h143.5c9.4,0,17.2-7.7,17.3-17.2V152.1
		c3.6-3.1,7.5-6.4,11.8-9.8c12.7-10.2,25.8-19.9,38.8-29.8C350,111.4,351,110.3,349.9,108.5z M124.9,77.7c0-6.8,5.5-12.3,12.3-12.3
		h143.5c6.8,0,12.3,5.5,12.3,12.3v55.6c-0.9,0.5-1.9,1.1-2.8,1.6c-1.8,1.2-3.6,2.4-5.3,3.6v-32.1h-152v93.5c-2.6-0.8-5.3-1.4-8-2
		V77.7z M137.9,233.2c1.5,2.3,3,4.6,4.4,7c10.4,17.1,18.9,35.2,26,54c1.4,3.7,3.8,5.9,7.5,6.8c5.8,1.4,14,0.1,17.8-7.4
		c12.7-24.9,27.8-48.4,44.5-70.8c17.9-24,27.5-38.5,41.8-53.5v145.1h-142V233.2z M197.7,220.4c-5.5,6.9-10.9,13.9-16.6,21.2
		c-1-1.6-1.7-2.9-2.5-4.2c-5.6-9.3-12.2-17.6-20.7-24.4c-6.2-5-12.9-8.7-20-11.4v-90.2h142V142C246.8,165.2,227.9,182.8,197.7,220.4
		z M293,350.2c-0.1,6.7-5.6,12.2-12.3,12.2H137.2c-6.8,0-12.3-5.5-12.3-12.3V215c2.8,3.5,5.4,7.1,8,10.8v93.6h152V164.2
		c2.5-2.5,5.2-5,8.1-7.6V350.2z"/>
	<path class="st0" d="M208.9,18.6C102.3,18.6,15.5,105.4,15.5,212c0,106.6,86.8,193.4,193.4,193.4S402.3,318.6,402.3,212
		C402.3,105.4,315.5,18.6,208.9,18.6z M208.9,400.4C105,400.4,20.5,315.9,20.5,212c0-103.9,84.5-188.4,188.4-188.4
		S397.3,108.1,397.3,212C397.3,315.9,312.8,400.4,208.9,400.4z"/>
</g>
</svg>
